<svg width="24" height="23" viewBox="0 0 24 23" fill="none" xmlns="http://www.w3.org/2000/svg">
<path d="M17.723 20.3725L17.9601 19.661C17.7462 19.5897 17.5116 19.6184 17.3212 19.7392L17.723 20.3725ZM20.9779 17.1175L20.3446 16.7157C20.2238 16.9061 20.1951 17.1408 20.2664 17.3547L20.9779 17.1175ZM22.6054 22L22.3682 22.7115C22.6377 22.8013 22.9349 22.7312 23.1357 22.5303C23.3366 22.3294 23.4068 22.0323 23.3169 21.7628L22.6054 22ZM12.1054 22.75C14.3181 22.75 16.3837 22.1104 18.1248 21.0058L17.3212 19.7392C15.8133 20.6959 14.0252 21.25 12.1054 21.25V22.75ZM0.855408 11.5C0.855408 17.7132 5.8922 22.75 12.1054 22.75V21.25C6.72063 21.25 2.35541 16.8848 2.35541 11.5H0.855408ZM12.1054 0.25C5.8922 0.25 0.855408 5.2868 0.855408 11.5H2.35541C2.35541 6.11522 6.72063 1.75 12.1054 1.75V0.25ZM23.3554 11.5C23.3554 5.2868 18.3186 0.25 12.1054 0.25V1.75C17.4902 1.75 21.8554 6.11522 21.8554 11.5H23.3554ZM21.6112 17.5193C22.7159 15.7783 23.3554 13.7127 23.3554 11.5H21.8554C21.8554 13.4198 21.3013 15.2079 20.3446 16.7157L21.6112 17.5193ZM20.2664 17.3547L21.8939 22.2371L23.3169 21.7628L21.6894 16.8804L20.2664 17.3547ZM22.8426 21.2885L17.9601 19.661L17.4858 21.084L22.3682 22.7115L22.8426 21.2885Z" fill="black"/>
</svg>
