<svg width="24" height="22" viewBox="0 0 24 22" fill="none" xmlns="http://www.w3.org/2000/svg">
<path fill-rule="evenodd" clip-rule="evenodd" d="M1.5 2.75C1.5 2.05964 2.05964 1.5 2.75 1.5C3.44036 1.5 4 2.05964 4 2.75C4 3.44036 3.44036 4 2.75 4C2.05964 4 1.5 3.44036 1.5 2.75ZM2.75 0C1.23122 0 0 1.23122 0 2.75C0 4.26878 1.23122 5.5 2.75 5.5C4.26878 5.5 5.5 4.26878 5.5 2.75C5.5 1.23122 4.26878 0 2.75 0ZM1.5 10.75C1.5 10.0596 2.05964 9.5 2.75 9.5C3.44036 9.5 4 10.0596 4 10.75C4 11.4404 3.44036 12 2.75 12C2.05964 12 1.5 11.4404 1.5 10.75ZM2.75 8C1.23122 8 0 9.23122 0 10.75C0 12.2688 1.23122 13.5 2.75 13.5C4.26878 13.5 5.5 12.2688 5.5 10.75C5.5 9.23122 4.26878 8 2.75 8ZM2.75 17.5C2.05964 17.5 1.5 18.0596 1.5 18.75C1.5 19.4404 2.05964 20 2.75 20C3.44036 20 4 19.4404 4 18.75C4 18.0596 3.44036 17.5 2.75 17.5ZM0 18.75C0 17.2312 1.23122 16 2.75 16C4.26878 16 5.5 17.2312 5.5 18.75C5.5 20.2688 4.26878 21.5 2.75 21.5C1.23122 21.5 0 20.2688 0 18.75ZM9.75 2C9.33579 2 9 2.33579 9 2.75C9 3.16421 9.33579 3.5 9.75 3.5H22.75C23.1642 3.5 23.5 3.16421 23.5 2.75C23.5 2.33579 23.1642 2 22.75 2H9.75ZM9 10.75C9 10.3358 9.33579 10 9.75 10H22.75C23.1642 10 23.5 10.3358 23.5 10.75C23.5 11.1642 23.1642 11.5 22.75 11.5H9.75C9.33579 11.5 9 11.1642 9 10.75ZM9.75 18C9.33579 18 9 18.3358 9 18.75C9 19.1642 9.33579 19.5 9.75 19.5H22.75C23.1642 19.5 23.5 19.1642 23.5 18.75C23.5 18.3358 23.1642 18 22.75 18H9.75Z" fill="black"/>
</svg>
