<svg width="24" height="24" viewBox="0 0 24 24" fill="none" xmlns="http://www.w3.org/2000/svg">
<path d="M1.32367 10.351L1.82817 10.9059L1.82817 10.9059L1.32367 10.351ZM9.37729 22.6485V23.3985H10.1273V22.6485H9.37729ZM14.6154 22.6485H13.8654V23.3985H14.6154V22.6485ZM22.669 10.351L22.1645 10.9059L22.1645 10.9059L22.669 10.351ZM12.669 1.26006L13.1735 0.705105V0.705104L12.669 1.26006ZM11.3237 1.26006L11.8282 1.81502L11.8282 1.81502L11.3237 1.26006ZM1.74634 11.0909C1.74634 11.0205 1.77605 10.9533 1.82817 10.9059L0.819161 9.79601C0.454331 10.1277 0.246338 10.5979 0.246338 11.0909H1.74634ZM1.74634 21.6485V11.0909H0.246338V21.6485H1.74634ZM1.99634 21.8985C1.85827 21.8985 1.74634 21.7866 1.74634 21.6485H0.246338C0.246338 22.615 1.02984 23.3985 1.99634 23.3985V21.8985ZM9.37729 21.8985H1.99634V23.3985H9.37729V21.8985ZM10.1273 22.6485V16.2676H8.62729V22.6485H10.1273ZM10.1273 16.2676C10.1273 15.2353 10.9641 14.3985 11.9963 14.3985V12.8985C10.1357 12.8985 8.62729 14.4069 8.62729 16.2676H10.1273ZM11.9963 14.3985C13.0286 14.3985 13.8654 15.2353 13.8654 16.2676H15.3654C15.3654 14.4069 13.857 12.8985 11.9963 12.8985V14.3985ZM13.8654 16.2676V22.6485H15.3654V16.2676H13.8654ZM21.9963 21.8985H14.6154V23.3985H21.9963V21.8985ZM22.2463 21.6485C22.2463 21.7866 22.1344 21.8985 21.9963 21.8985V23.3985C22.9628 23.3985 23.7463 22.615 23.7463 21.6485H22.2463ZM22.2463 11.0909V21.6485H23.7463V11.0909H22.2463ZM22.1645 10.9059C22.2166 10.9533 22.2463 11.0205 22.2463 11.0909H23.7463C23.7463 10.5979 23.5383 10.1277 23.1735 9.79601L22.1645 10.9059ZM12.1645 1.81501L22.1645 10.9059L23.1735 9.79601L13.1735 0.705105L12.1645 1.81501ZM11.8282 1.81502C11.9235 1.72833 12.0692 1.72833 12.1645 1.81502L13.1735 0.705104C12.506 0.0982985 11.4866 0.0982984 10.8192 0.705105L11.8282 1.81502ZM1.82817 10.9059L11.8282 1.81502L10.8192 0.705105L0.81916 9.79601L1.82817 10.9059Z" fill="black"/>
</svg>
