<svg width="23" height="25" viewBox="0 0 23 25" fill="none" xmlns="http://www.w3.org/2000/svg">
    <path fill-rule="evenodd" clip-rule="evenodd"
        d="M9.2767 0.21967C8.98381 -0.0732233 8.50893 -0.0732233 8.21604 0.21967C7.92315 0.512563 7.92315 0.987437 8.21604 1.28033L9.93571 3H7.74637C4.01845 3 0.996368 6.02208 0.996368 9.75V17.75C0.996368 21.4779 4.01845 24.5 7.74637 24.5H15.7464C19.4743 24.5 22.4964 21.4779 22.4964 17.75V9.75C22.4964 6.02208 19.4743 3 15.7464 3H13.557L15.2767 1.28033C15.5696 0.987437 15.5696 0.512563 15.2767 0.21967C14.9838 -0.0732233 14.5089 -0.0732233 14.216 0.21967L11.7464 2.68934L9.2767 0.21967ZM2.49637 9.75C2.49637 6.85051 4.84687 4.5 7.74637 4.5H11.7464H15.7464C18.6459 4.5 20.9964 6.85051 20.9964 9.75V17.75C20.9964 20.6495 18.6459 23 15.7464 23H7.74637C4.84687 23 2.49637 20.6495 2.49637 17.75V9.75ZM12.4964 12.75C12.4964 12.5089 12.3805 12.2825 12.1849 12.1416C11.9893 12.0006 11.7379 11.9623 11.5092 12.0385L5.5092 14.0385C5.11624 14.1695 4.90387 14.5942 5.03486 14.9872C5.16584 15.3801 5.59058 15.5925 5.98354 15.4615L10.9964 13.7906V15.75C10.9964 15.9911 11.1123 16.2175 11.3078 16.3584C11.5034 16.4994 11.7548 16.5378 11.9835 16.4615L17.9835 14.4615C18.3765 14.3305 18.5889 13.9058 18.4579 13.5128C18.3269 13.1199 17.9022 12.9075 17.5092 13.0385L12.4964 14.7094V12.75Z" />
</svg>