<svg width="16" height="3" viewBox="0 0 16 3" fill="none" xmlns="http://www.w3.org/2000/svg">
    <path fill-rule="evenodd" clip-rule="evenodd"
        d="M3.49637 1.5C3.49637 2.32843 2.8248 3 1.99637 3C1.16794 3 0.496368 2.32843 0.496368 1.5C0.496368 0.671573 1.16794 0 1.99637 0C2.8248 0 3.49637 0.671573 3.49637 1.5ZM7.99637 3C8.8248 3 9.49637 2.32843 9.49637 1.5C9.49637 0.671573 8.8248 0 7.99637 0C7.16794 0 6.49637 0.671573 6.49637 1.5C6.49637 2.32843 7.16794 3 7.99637 3ZM13.9964 3C14.8248 3 15.4964 2.32843 15.4964 1.5C15.4964 0.671573 14.8248 0 13.9964 0C13.1679 0 12.4964 0.671573 12.4964 1.5C12.4964 2.32843 13.1679 3 13.9964 3Z" />
</svg>