<svg width="25" height="24" viewBox="0 0 25 24" fill="none" xmlns="http://www.w3.org/2000/svg">
    <path fill-rule="evenodd" clip-rule="evenodd"
        d="M0.807007 6.75C0.807007 3.02208 3.82909 0 7.55701 0H17.557C21.2849 0 24.307 3.02208 24.307 6.75V16.75C24.307 20.4779 21.2849 23.5 17.557 23.5H7.55701C3.82908 23.5 0.807007 20.4779 0.807007 16.75V6.75ZM7.55701 1.5C4.65751 1.5 2.30701 3.8505 2.30701 6.75V16.75C2.30701 19.6495 4.65751 22 7.55701 22H17.557C20.4565 22 22.807 19.6495 22.807 16.75V6.75C22.807 3.85051 20.4565 1.5 17.557 1.5H7.55701ZM13.307 6V6.75V11H17.557H18.307V12.5H17.557H13.307V16.75V17.5H11.807V16.75V12.5H7.55701H6.80701V11H7.55701H11.807V6.75V6H13.307Z" />
</svg>