<svg width="23" height="23" viewBox="0 0 23 23" fill="none" xmlns="http://www.w3.org/2000/svg">
<path fill-rule="evenodd" clip-rule="evenodd" d="M20.4874 0.512563C19.804 -0.170854 18.696 -0.170855 18.0126 0.512563L16.459 2.06612L5.1557 13.3694L4.94203 13.5831L4.93617 13.8852L4.87881 16.8421L4.86369 17.6216L5.64322 17.6065L8.60007 17.5491L8.90218 17.5432L9.11585 17.3296L20.4192 6.02627L21.9727 4.47271C22.6561 3.78929 22.6561 2.68125 21.9727 1.99784L20.4874 0.512563ZM19.0732 1.57322C19.1709 1.47559 19.3291 1.47559 19.4268 1.57322L20.9121 3.0585C21.0097 3.15613 21.0097 3.31442 20.9121 3.41205L19.8888 4.43528L18.05 2.59645L19.0732 1.57322ZM16.9893 3.65711L18.8282 5.49594L8.26886 16.0552L6.39365 16.0916L6.43003 14.2164L16.9893 3.65711ZM2 6.33579C2 4.54086 3.45507 3.08579 5.25 3.08579H11.75C12.1642 3.08579 12.5 2.75 12.5 2.33579C12.5 1.92157 12.1642 1.58579 11.75 1.58579H5.25C2.62665 1.58579 0.5 3.71243 0.5 6.33579V17.3358C0.5 19.9591 2.62665 22.0858 5.25 22.0858H16.25C18.8734 22.0858 21 19.9591 21 17.3358V10.8358C21 10.4216 20.6642 10.0858 20.25 10.0858C19.8358 10.0858 19.5 10.4216 19.5 10.8358V17.3358C19.5 19.1307 18.0449 20.5858 16.25 20.5858H5.25C3.45507 20.5858 2 19.1307 2 17.3358V6.33579Z" fill="black"/>
</svg>
