<svg width="23" height="23" viewBox="0 0 23 23" fill="none" xmlns="http://www.w3.org/2000/svg">
    <path fill-rule="evenodd" clip-rule="evenodd"
        d="M11.3554 0C7.90363 0 5.10541 2.79822 5.10541 6.25C5.10541 9.70178 7.90363 12.5 11.3554 12.5C14.8072 12.5 17.6054 9.70178 17.6054 6.25C17.6054 2.79822 14.8072 0 11.3554 0ZM6.60541 6.25C6.60541 3.62665 8.73206 1.5 11.3554 1.5C13.9788 1.5 16.1054 3.62665 16.1054 6.25C16.1054 8.87335 13.9788 11 11.3554 11C8.73206 11 6.60541 8.87335 6.60541 6.25ZM1.60541 19.75C1.60541 17.9549 3.0602 16.5 4.85478 16.5H17.856C19.65 16.5 21.1054 17.9589 21.1054 19.75V22.75H22.6054V19.75C22.6054 17.1318 20.4797 15 17.856 15H4.85478C2.23151 15 0.105408 17.1268 0.105408 19.75V22.75H1.60541V19.75Z" />
</svg>