<svg width="23" height="23" viewBox="0 0 23 23" fill="none" xmlns="http://www.w3.org/2000/svg">
<path fill-rule="evenodd" clip-rule="evenodd" d="M10.7463 0C5.36156 0 0.996338 4.36522 0.996338 9.75C0.996338 15.1348 5.36156 19.5 10.7463 19.5C12.9131 19.5 14.9147 18.7932 16.5333 17.5976L16.716 17.7803L21.216 22.2803L21.7463 22.8107L22.807 21.75L22.2767 21.2197L17.7767 16.7197L17.6709 16.6139C19.4175 14.8519 20.4963 12.427 20.4963 9.75C20.4963 4.36522 16.1311 0 10.7463 0ZM2.49634 9.75C2.49634 5.19365 6.18999 1.5 10.7463 1.5C15.3027 1.5 18.9963 5.19365 18.9963 9.75C18.9963 14.3063 15.3027 18 10.7463 18C6.18999 18 2.49634 14.3063 2.49634 9.75Z" fill="black"/>
</svg>
