<svg width="23" height="23" viewBox="0 0 23 23" fill="none" xmlns="http://www.w3.org/2000/svg">
<path fill-rule="evenodd" clip-rule="evenodd" d="M9.26899 3.82182H9.85246L10.2826 3.42755L11.9964 1.85657L13.7102 3.42755L14.1403 3.82182H14.7238H19.9964C20.8248 3.82182 21.4964 4.49339 21.4964 5.32182V19.8217C21.4964 20.6501 20.8248 21.3217 19.9964 21.3217H19.6597C19.1864 18.6227 16.8309 16.5717 13.9964 16.5717H9.99637C7.1618 16.5717 4.80629 18.6227 4.33301 21.3217H3.99637C3.16794 21.3217 2.49637 20.6501 2.49637 19.8217V5.32182C2.49637 4.49339 3.16794 3.82182 3.99637 3.82182H9.26899ZM5.86467 21.3217H18.1281C17.6784 19.457 15.9992 18.0717 13.9964 18.0717H9.99637C7.99358 18.0717 6.31436 19.457 5.86467 21.3217ZM9.26899 2.32182H3.99637C2.33951 2.32182 0.996368 3.66496 0.996368 5.32182V19.8217C0.996368 21.4785 2.33951 22.8217 3.99637 22.8217H19.9964C21.6532 22.8217 22.9964 21.4785 22.9964 19.8217V5.32182C22.9964 3.66496 21.6532 2.32182 19.9964 2.32182H14.7238L12.3342 0.131423C12.1431 -0.0438077 11.8497 -0.0438076 11.6585 0.131423L9.26899 2.32182ZM16.4964 10.3217C16.4964 12.8069 14.4816 14.8217 11.9964 14.8217C9.51109 14.8217 7.49637 12.8069 7.49637 10.3217C7.49637 7.83637 9.51109 5.82166 11.9964 5.82166C14.4816 5.82166 16.4964 7.83637 16.4964 10.3217ZM14.9964 10.3217C14.9964 11.9785 13.6532 13.3217 11.9964 13.3217C10.3395 13.3217 8.99637 11.9785 8.99637 10.3217C8.99637 8.6648 10.3395 7.32166 11.9964 7.32166C13.6532 7.32166 14.9964 8.6648 14.9964 10.3217Z" fill="black"/>
</svg>
